<?xml version="1.0" encoding="utf-8"?>
<!-- Generator: Adobe Illustrator 24.0.1, SVG Export Plug-In . SVG Version: 6.00 Build 0)  -->
<svg version="1.1" id="Layer_1" xmlns="http://www.w3.org/2000/svg" xmlns:xlink="http://www.w3.org/1999/xlink" x="0px" y="0px"
	 width="194px" height="67.5px" viewBox="0 0 194 67.5" enable-background="new 0 0 194 67.5" xml:space="preserve">
<g>
	<path fill="#FFFFFF" d="M33,67.5c0-15,0-30,0-45.1c5.2,0,10.1,0,15.3,0c1.8,9.6,3.6,19.3,5.4,29c0.1,0,0.3,0,0.4,0
		c1.7-9.6,3.4-19.2,5.2-29c4.9,0,9.8,0,15.1,0c0,0.7,0,1.5,0,2.2c0,13.5,0,27.1,0,40.6c0,0.8,0.1,1.5,0.1,2.3c-3.3,0-6.6,0-10,0
		c0.1-0.4,0.2-0.9,0.2-1.3c0-10.3,0-20.7,0-31c0-0.4-0.1-0.9-0.1-1.3c-0.3,0.2-0.4,0.5-0.5,0.8c-0.9,4.6-1.8,9.1-2.7,13.7
		c-1.3,6.4-2.5,12.7-3.8,19.1c-2.7,0-5.4,0-8.1,0c0-0.4,0-0.8-0.1-1.1c-1.8-9-3.7-18-5.5-26.9c-0.4-2.1-0.9-4.1-1.3-6.2
		c-0.1,0-0.3,0-0.4,0.1c0,11.4,0,22.8,0,34.2C39.1,67.5,36,67.5,33,67.5z"/>
	<path fill="#FFFFFF" d="M131.5,67.5c0-6.1,0.1-12.3,0.1-18.4c0-8.2,0-16.3,0-24.5c0-0.7,0-1.4,0-2.3c2.2,0,4.2,0,6.2,0
		c4.6,0.1,9.2-0.2,13.8,0.3c5.6,0.6,8.7,3.7,9.2,9.3c0.2,2.7-0.3,5.6-1,8.2c-0.7,2.7-3.2,4-5.8,4.8c0.1,0.2,0.2,0.3,0.3,0.3
		c4.1,1,6,2.7,6.3,8.7c0.1,2.2,0.1,4.3,0.2,6.5c0.1,2.4,0,4.9,1.7,7c-3.7,0-7.4,0-11.1,0c-0.4-2.8-0.8-5.5-1.1-8.3
		c-0.2-2.3-0.2-4.7-0.5-7.1c-0.3-2.4-1.5-3.3-3.9-3.4c-0.6,0-1.3,0.1-1.9,0c-1.7-0.2-2.2,0.4-2.2,2.1c0.1,5.6,0,11.1,0,16.7
		C138.4,67.5,135,67.5,131.5,67.5z M142.1,41.2c4.4,0.5,6.5-0.1,7.6-2.2c1.3-2.5,1.5-5.1-0.1-7.5c-1.8-2.7-4.8-1.7-7.5-1.9
		C142.1,33.7,142.1,37.4,142.1,41.2z"/>
	<path fill="#FFFFFF" d="M178.1,30.7V40h14.2c0,2.4-0.1,4.6,0,6.9c0,0.2,0,0.5,0,0.6c-0.1,0.9-0.7,1.1-1.8,1.1
		c-3.4-0.1-6.9,0.1-10.3-0.1c-0.7,0-1.2,0-1.6,0.2h-0.5v0.5c-0.2,0.3-0.2,0.8-0.2,1.4c0.2,2,0.1,4.1,0,6.1c0,0.6,0,1.1,0.2,1.4V59
		H194v8.4h-26.5c0-4.6,0-9.1,0-13.7c0,0,0-0.1,0-0.1c0-2.9,0-5.9,0-8.8c0-6.7,0-13.4,0-20.1v-2.5H194v8.4H178.1z"/>
	<path fill="#FFFFFF" d="M194,59v8.4h-26.4V65c0-8.8,0-9,0-11.2c0,0,0-0.1,0-0.1c0-1.4,0-3.6,0-8.8c0,0,0,0,0,0
		c22.4-4.3,24.6-0.2,24.7,2.6c0,0.5,0,0.9,0,1.2h-14.2V59H194z"/>
	<path fill="#FFFFFF" d="M0,22.2c8.7,0,17.5,0,26.3,0c0,2.9,0,5.6,0,8.6c-5.3,0-10.5,0-15.8,0c0,3.1,0,5.9,0,9c4.6,0,9.3,0,14.2,0
		c0,2.8,0.1,5.3-0.1,7.8c0,0.3-1,0.8-1.5,0.8c-3.4,0.1-6.9,0-10.3,0c-0.7,0-1.4,0-2.2,0c0,3.5,0,6.8,0,10.3c5.2,0,10.4,0,15.9,0
		c0,3.1,0,5.8,0,8.6c-8.8,0-17.6,0-26.5,0C0,52.4,0,37.3,0,22.2z"/>
	<path fill="#FFFFFF" d="M80.9,67.5c0-15,0-30,0-45.1c0.7,0,1.3-0.1,1.8-0.1c5,0,10-0.1,14.9,0c6.9,0.1,11.1,3.7,12.2,10.6
		c0.3,2.1,0.3,4.2,0,6.3c-1,6.8-5.3,10.3-12.6,10.6c-1.9,0.1-3.8,0-6,0c0,6,0,11.9,0,17.7C87.8,67.5,84.3,67.5,80.9,67.5z
		 M91.3,41.9c2.6,0,5.2,0.6,7.1-1.8c1.4-1.8,1.3-6.1-0.1-8c-1.8-2.5-4.4-1.9-7-1.9C91.3,34.2,91.3,38,91.3,41.9z"/>
	<path fill="#FFFFFF" d="M114.6,67.5c0-15,0-30,0-45.1c3.4,0,6.7,0,10.4,0c0,15,0,30,0,45.1C121.5,67.5,118.1,67.5,114.6,67.5z"/>
</g>
<path d="M21.5,0v0.2C21.5,0.2,21.5,0.1,21.5,0L21.5,0z"/>
<path fill="#FFFFFF" d="M26.5,0h-5v10h-5.7c0,0-0.1-6.7-0.1-8.2h-4.7c0,0.4-0.1,8.2-0.1,8.2H5V9.2V0v0H0v15.3c8,0,16.1-0.1,24.1,0
	c0.2,0,0.4,0,0.6,0h1.8V0z"/>
</svg>
