<?xml version="1.0" encoding="utf-8"?>
<!-- Generator: Adobe Illustrator 24.0.1, SVG Export Plug-In . SVG Version: 6.00 Build 0)  -->
<svg version="1.1" id="Layer_1" xmlns="http://www.w3.org/2000/svg" xmlns:xlink="http://www.w3.org/1999/xlink" x="0px" y="0px"
	 width="402px" height="35.1px" viewBox="0 0 402 35.1" enable-background="new 0 0 402 35.1" xml:space="preserve">
<path fill="#FFFFFF" d="M179.4,7.8h9.6v26.5h8.2V7.8h9.6V0.9h-27.3V7.8L179.4,7.8z M159.5,20.4h14.1v-6.5h-14.1V7.6h14.9V0.9h-22.8
	v33.4h23.6v-6.9h-15.7V20.4L159.5,20.4z M123.4,22.3h-0.2l-7.7-21.4h-11.7v33.4h7.7l-0.2-23.6h0.1l8.6,23.6h5.8l8.8-23.6h0.1
	l-0.2,23.6h8V0.9h-11.9L123.4,22.3z M314.4,34.3h8.2V0.9h-8.2V34.3z M295.8,0.9h-8.2v33.4H309v-7h-13.1V0.9L295.8,0.9z M49.3,16.9
	l7.6-7.6L67.7,20c0.9,0.9,2,1.3,3.2,1.3H88V14H72.1L60.2,2.2c-1.8-1.7-4.7-1.7-6.4,0l-9.7,9.5l-9.7-9.5c-1.8-1.7-4.7-1.7-6.4,0
	L15.9,14.1H0v7.3h17.1c1.2,0,2.3-0.5,3.2-1.3L31.1,9.4l7.6,7.6L28.6,27H0v7.3h29.8c1.2,0,2.3-0.5,3.2-1.3L44.1,22L55.1,33
	c0.9,0.9,2,1.3,3.2,1.3h29.7V27H59.5L49.3,16.9z M236.2,16.7c1.3-1.6,1.9-3.6,1.9-5.7c0.1-1.7-0.3-3.3-1.1-4.8
	c-0.7-1.3-1.7-2.3-2.9-3.1c-1.3-0.8-2.7-1.4-4.2-1.7c-1.5-0.3-3.1-0.5-4.8-0.5h-12.9v33.4h8V21.1h2.8l7.4,13.3h9.6L231.1,20
	C233,19.4,234.8,18.3,236.2,16.7L236.2,16.7z M229.4,13.2c-0.3,0.5-0.9,0.9-1.4,1.2c-0.6,0.3-1.3,0.5-1.9,0.6
	c-0.7,0.1-1.4,0.1-2.1,0.1h-3.9V7.4h4.4c0.6,0,1.3,0.1,1.9,0.1s1.2,0.3,1.8,0.5c0.5,0.3,0.9,0.7,1.3,1.1c0.3,0.5,0.5,1.2,0.5,1.9
	C230,11.9,229.8,12.6,229.4,13.2L229.4,13.2z M275.1,4.7c-1.7-1.5-3.7-2.7-5.9-3.5c-4.8-1.6-10-1.6-14.7,0c-2.1,0.7-4.2,1.9-5.8,3.5
	c-1.7,1.5-2.9,3.4-3.9,5.5c-0.9,2.3-1.4,4.8-1.4,7.2c0,2.5,0.5,5,1.4,7.2c0.9,2.1,2.2,4,3.9,5.6s3.7,2.8,5.8,3.6
	c4.8,1.7,10,1.7,14.7,0c2.2-0.8,4.2-2,5.9-3.6c1.7-1.6,2.9-3.5,3.9-5.6c0.9-2.3,1.4-4.8,1.4-7.2c0.1-2.5-0.5-5-1.4-7.2
	C278.2,8.1,276.9,6.2,275.1,4.7L275.1,4.7z M270.9,21.6c-0.5,1.2-1.1,2.3-2,3.3s-1.9,1.7-3.1,2.1c-2.5,1-5.4,1-7.8,0
	c-1.1-0.5-2.2-1.2-3-2.1c-0.9-0.9-1.5-2.1-2-3.3c-0.9-2.7-0.9-5.6,0-8.2c0.4-1.2,1.1-2.3,2-3.2c0.9-0.9,1.9-1.6,3.1-2.1
	c1.3-0.5,2.5-0.8,4-0.8c1.3,0,2.7,0.3,4,0.8c1.1,0.5,2.2,1.2,3.1,2.1c0.9,0.9,1.5,2,2,3.2c0.5,1.3,0.7,2.7,0.7,4.1
	C271.7,18.9,271.5,20.3,270.9,21.6L270.9,21.6z M354.6,22.7h-0.1L340.8,0.9h-9.3v33.4h8l-0.2-21.8h0.1l13.7,21.8h9.3V0.9h-8
	L354.6,22.7z M389.6,16.6l10.7-15.7h-9.5l-6.2,10.4l-6.3-10.4h-9.8l10.9,15.7l-11.9,17.6h9.8l7.2-11.8l7.4,11.8H402L389.6,16.6z"/>
</svg>
