<?xml version="1.0" encoding="utf-8"?>
<!-- Generator: Adobe Illustrator 24.0.1, SVG Export Plug-In . SVG Version: 6.00 Build 0)  -->
<svg version="1.1" id="Layer_1" xmlns="http://www.w3.org/2000/svg" xmlns:xlink="http://www.w3.org/1999/xlink" x="0px" y="0px"
	 width="229px" height="69.7px" viewBox="0 0 229 69.7" enable-background="new 0 0 229 69.7" xml:space="preserve">
<g>
	<path fill="#FFFFFF" d="M229,61.6c-0.6,1.9-1.1,3.7-2.8,5c-1.8,1.4-3.8,2.1-6,2.3c-3.9,0.4-7.8,0.4-11.2-2c-2-1.3-3-3.2-3-5.6
		c0-10.5,0-21.1,0-31.6c0-2.6,1.3-4.7,3.5-5.8c5.1-2.5,10.3-2.5,15.4-0.2c2.1,0.9,3.4,2.8,3.8,5.1c0,0.3,0.2,0.6,0.3,0.9
		C229,40.3,229,50.9,229,61.6z M219.2,45.4c0-4.7,0-9.5,0-14.2c0-0.5-0.1-1.1-0.2-1.6c-0.2-0.9-0.8-1.4-1.7-1.4
		c-1,0-1.5,0.6-1.7,1.5c-0.1,0.6-0.1,1.1-0.1,1.7c0,9.2,0,18.4,0,27.6c0,0.6-0.1,1.3,0.2,1.8c0.3,0.6,1,1.3,1.5,1.3
		c0.6,0.1,1.3-0.5,1.7-1c0.3-0.4,0.3-1.1,0.3-1.6C219.2,54.9,219.2,50.2,219.2,45.4z"/>
	<path fill="#FFFFFF" d="M3.4,64.3c-1.2,0-2.2,0-3.4,0c0-0.6,0-1.1,0-1.7c0-13,0-26,0-38.9c0-6.1,3.4-8.9,7.7-11
		C9.2,11.9,11,13.2,11,15c0,1.5,0.1,2.9,0,4.4c-0.1,0.9,0.3,1.4,1.1,1.7c3.7,1.2,7.4,2.5,11.2,3.6c2.1,0.6,2.3,0.8,2.3,3
		c0,10.5,0,20.9,0,31.4c0,0.5,0,1,0,1.5c0.2,0.1,0.3,0.2,0.3,0.2c3.7-0.3,3.7-0.3,3.7-4.1c0-11.7,0-23.5,0-35.2c0-1.7,0.6-2.7,2-3.6
		c1.8-1.1,3.3-2.7,4.8-4.1c1-1,1.4-2.3,1.3-3.7c-0.1-2.6,0-5.1-0.1-7.7c-0.1-1.5,1.2-1.5,2-2.1c0.7-0.5,1.3-0.2,1.9,0.4
		c4.5,4.3,6.9,9.5,6.9,15.7c0.1,15.8,0,31.6,0,47.4c0,0.5,0,1,0,1.6c-1.2-0.2-2.2-0.4-3.4-0.6c0-2,0-3.9,0-5.8c0-13.7,0-27.4,0-41.2
		c0-3.7-0.7-7.2-2.6-10.4c-0.3-0.5-0.6-0.9-0.9-1.3c-0.1,0-0.2,0.1-0.4,0.1c0,0.5,0,1.1,0,1.6c0,18.2,0,36.5,0,54.7
		c0,0.6-0.1,1.6-0.3,1.7c-0.9,0.2-1.9,0.1-2.9,0.1c-0.1,0-0.3-0.5-0.3-0.8c0-0.8,0-1.6,0-2.4c0-13.7,0-27.4,0-41.1c0-0.6,0-1.2,0-2
		c-1.7,1.2-3.1,2.3-4.6,3.4c-0.2,0.2-0.2,0.7-0.2,1c0,12.4,0,24.7,0,37.1c0,0.8,0.2,1.3,1.2,1.2c-5.1,0.4-10,1.4-14.6,3.4
		c-0.8,0.4-1.9,0.3-2.8,0.3c-1.3,0.1-2.6,0-3.8,0c0-0.1-0.1-0.2-0.1-0.3c2.3-0.7,4.6-1.5,7-2.1c2.5-0.6,2.5-0.6,2.5-3.1
		c0-9.8,0-19.7,0-29.5c0-1.1-0.4-1.6-1.4-1.9c-3.2-0.9-6.3-2-9.6-3.1c0,13.3,0,26.5,0,39.9c-1.2,0-2.3,0-3.5,0c0-15.9,0-31.7,0-47.6
		c-2,0.5-3.8,2.8-3.9,5.2c-0.1,4.9-0.1,9.8-0.1,14.6c0,8.9,0,17.7,0,26.6C3.5,63.5,3.4,63.8,3.4,64.3z"/>
	<path fill="#FFFFFF" d="M172.7,68.1c-1.8-11.8-3.6-23.5-5.5-35.2c-0.1,0-0.1,0-0.2,0c0,11.7,0,23.4,0,35.1c-2.6,0-5.1,0-7.6,0
		c0-15,0-29.9,0-45c0.3-0.1,0.6-0.2,0.9-0.2c3.5,0,7.1,0,10.6,0c0.9,0,1.2,0.2,1.3,1.2c1,6.6,2.1,13.2,3.1,19.9
		c0.4,2.9,0.8,5.7,1.5,8.6c0-9.8,0-19.7,0-29.6c2.6,0,5.1,0,7.6,0c0,15.1,0,30.1,0,45.1C180.6,68.1,176.8,68.1,172.7,68.1z"/>
	<path fill="#FFFFFF" d="M78.9,45.4c0-4.7,0.1-9.5,0-14.2c-0.2-5.1,2.7-7.5,6.7-8.5c3.7-0.9,7.4-0.8,11.1,0.4
		c3.3,1.1,5.2,3.7,5.2,7.2c0,10.3,0.1,20.5,0,30.8c0,3.3-1.9,5.6-4.9,6.7c-4.6,1.7-9.2,1.7-13.7-0.3c-2.9-1.3-4.4-3.6-4.4-6.8
		C78.9,55.6,78.9,50.5,78.9,45.4z M92.2,45.4C92.2,45.4,92.2,45.4,92.2,45.4c0-4.9,0-9.7,0-14.6c0-0.4,0-1-0.2-1.3
		c-0.4-0.5-1-1.1-1.5-1.1c-0.5,0-1.3,0.5-1.6,1c-0.3,0.5-0.3,1.2-0.3,1.8c0,9.5,0,18.9,0,28.4c0,2,0.5,2.8,1.8,2.8
		c1.3,0,1.8-0.8,1.8-2.8C92.3,54.9,92.2,50.1,92.2,45.4z"/>
	<path fill="#FFFFFF" d="M132.5,45.6c0-5.3,0-10.6,0-15.9c0-2.7,1.4-4.8,3.8-5.9c5.1-2.3,10.3-2.3,15.3,0.1c2.3,1.1,3.6,3.2,3.6,5.8
		c0.1,5.2,0.1,10.4,0.1,15.7c0,5,0,10.1,0,15.1c0,3.9-1.5,6.3-5.2,7.6c-4.4,1.6-8.9,1.6-13.3-0.3c-2.7-1.2-4.3-3.2-4.4-6.2
		C132.5,56.1,132.6,50.8,132.5,45.6C132.6,45.6,132.6,45.6,132.5,45.6z M142.3,45.4c0,4.6,0,9.2,0,13.8c0,0.6,0,1.2,0.1,1.7
		c0.1,0.9,0.7,1.4,1.6,1.5c0.9,0.1,1.5-0.4,1.8-1.2c0.1-0.4,0.2-0.9,0.2-1.3c0-9.6,0-19.2,0-28.8c0-2-0.6-2.8-1.8-2.8
		c-1.3,0-1.8,0.8-1.8,2.9C142.3,35.9,142.3,40.6,142.3,45.4z"/>
	<path fill="#FFFFFF" d="M115.5,68.1c-3.3,0-6.4,0-9.6,0c0-15,0-30,0-45.1c3.6,0,7.2,0,10.8,0c2.7,0,5.4,0.2,7.8,1.5
		c2.6,1.4,4,3.6,4.2,6.6c0.1,1.7,0.1,3.4,0.1,5c-0.1,3.6-1.9,6-5.4,6.9c-0.3,0.1-0.6,0.2-1.1,0.3c0.9,0.2,1.7,0.4,2.5,0.7
		c2.4,0.7,3.8,2.4,3.8,4.9c0.1,2.6,0.1,5.1,0.1,7.7c0,1.9,0,3.8,0.2,5.7c0.2,1.9,0.7,3.7,1,5.7c-3,0-6,0-9,0c-0.4,0-0.9-0.6-1-1
		c-0.4-1.6-0.7-3.2-0.8-4.8c-0.1-4.2-0.1-8.4-0.2-12.6c0-1.6-0.8-2.3-2.2-2.8c-1-0.3-1.4-0.1-1.4,1c0,3.7,0,7.4,0,11.2
		C115.5,62,115.5,64.9,115.5,68.1z M115.4,41.5c2.6,0.4,3.6-0.3,3.6-2.9c0-2.3,0-4.5,0-6.8c0-2.5-1.2-3.3-3.6-2.6
		C115.4,33.4,115.4,37.5,115.4,41.5z"/>
	<path fill="#FFFFFF" d="M75.2,18.9c0,16.5,0,32.8,0,49.2c-3.3,0-6.5,0-9.8,0c0-16.3,0-32.6,0-49.1c-2.5,0-4.8,0-7.3,0
		c0-2.3,0-4.4,0.1-6.5c0-0.3,0.9-0.7,1.4-0.7c6.5,0,13,0,19.5,0c1.1,0,2.3,0,3.4,0c0,2.4,0,4.7,0,7.1C80.1,18.9,77.7,18.9,75.2,18.9
		z"/>
	<path fill="#FFFFFF" d="M190.6,68c0-12.8,0-25.5,0-38.4c-1.3,0-2.5,0-3.7,0c0-2.3,0-4.4,0-6.6c5.7,0,11.3,0,17,0c0,2.2,0,4.3,0,6.6
		c-1.2,0-2.3,0-3.6,0c0,12.9,0,25.6,0,38.5C197,68,193.9,68,190.6,68z"/>
	<path fill="#FFFFFF" d="M56.7,69.7c-1.8-0.4-3.6-0.7-5.4-1c-0.8-0.1-1.6-0.2-2.4-0.2c-15.7,0-31.4,0-47.2,0c-0.5,0-1.1,0-1.7,0
		c0-0.8,0-1.4,0-2.3c0.6,0,1.1,0,1.7,0c11.4,0,22.8,0.1,34.1,0c5.7-0.1,11.2,0.3,16.6,2c1.4,0.4,2.8,1,4.2,1.5
		C56.7,69.6,56.7,69.6,56.7,69.7z"/>
</g>
</svg>
