<?xml version="1.0" encoding="utf-8"?>
<!-- Generator: Adobe Illustrator 24.0.1, SVG Export Plug-In . SVG Version: 6.00 Build 0)  -->
<svg version="1.1" id="Layer_1" xmlns="http://www.w3.org/2000/svg" xmlns:xlink="http://www.w3.org/1999/xlink" x="0px" y="0px"
	 width="838.8px" height="296.1px" viewBox="0 0 838.8 296.1" enable-background="new 0 0 838.8 296.1" xml:space="preserve">
<g>
	<g>
		<path fill="#FFFFFF" d="M192.4,209.7v-41.9l54.3-81.4h-51.8l-27.8,44.8l-26.5-44.8H86.3l54.3,81.4v41.9H192.4z M314.8,214.7
			c50.9,0,85.3-23.8,85.3-66.8c0-43-34.4-66.8-85.3-66.8s-85.3,23.8-85.3,66.8C229.5,191,263.9,214.7,314.8,214.7z M314.8,119.4
			c21.5,0,34.4,10.7,34.4,28.6c0,17.9-12.9,28.6-34.4,28.6c-21.5,0-34.4-10.7-34.4-28.6C280.4,130.1,293.3,119.4,314.8,119.4z
			 M560.8,130.8c0-31.1-27.7-44.4-62.5-44.4h-91.3v123.4h49.3v-34.5h22.2l29.6,34.5h54.3L530.7,171
			C548.8,164.4,560.8,151.2,560.8,130.8z M493.4,145.6h-37v-27.1h37c9.7,0,16.7,4.5,16.7,13.8C510.1,141.5,503.1,145.6,493.4,145.6z
			 M668.6,209.7h56.7L673.1,136l49.8-49.6h-56.7l-47,47.5l0.1-47.5h-49.3v123.4h49.3l-0.1-24.8l19.2-18.7L668.6,209.7z M838.8,209.7
			V86.4h-49.3C782.6,98.7,769,104.7,752,107v37.3c13.3-2.3,27.2-5.8,37.5-11.1v76.5H838.8z M789.5,229.5v17.3H49.3V49.4h740.1v17.3
			h49.3l0-66.6H0l0,296.1h838.8l0-66.6H789.5z"/>
	</g>
</g>
</svg>
