<?xml version="1.0" encoding="utf-8"?>
<!-- Generator: Adobe Illustrator 24.0.1, SVG Export Plug-In . SVG Version: 6.00 Build 0)  -->
<svg version="1.1" id="Layer_1" xmlns="http://www.w3.org/2000/svg" xmlns:xlink="http://www.w3.org/1999/xlink" x="0px" y="0px"
	 width="101px" height="100.8px" viewBox="0 0 101 100.8" enable-background="new 0 0 101 100.8" xml:space="preserve">
<polygon fill="#FFFFFF" points="56.8,69.3 56.8,56.3 73.7,31.1 57.6,31.1 49,45 40.7,31.1 23.9,31.1 40.7,56.3 40.7,69.3 56.8,69.3 
	"/>
<path fill="#FFFFFF" d="M101,69.2V31.1H85.8c-2.1,3.8-6.3,5.7-11.6,6.4V49c4.1-0.7,8.4-1.8,11.6-3.4v23.6H101z"/>
<polygon fill="#FFFFFF" points="85.2,76.4 85.2,84.9 15.8,84.9 15.8,15.8 85.1,15.8 85.1,24.4 101,24.4 101,0 0,0 0,100.8 
	101,100.8 101,76.4 85.2,76.4 "/>
</svg>
